# AST/ASF file generated using VICON BodyLanguage
# -----------------------------------------------
:version 1.10
:name VICON
:units
  mass 1.0
  length 0.45
  angle deg
:documentation
   .ast/.asf automatically generated from VICON data using
   VICON BodyBuilder and BodyLanguage model FoxedUp or BRILLIANT.MOD
:root
   order TX TY TZ RX RY RZ
   axis XYZ
   position 0 0 0  
   orientation 0 0 0 
:bonedata
  begin
     id 1 
     name lhipjoint
     direction 0.682418 -0.694059 0.22932 
     length 2.25561 
     axis 0 0 0  XYZ
  end
  begin
     id 2 
     name lfemur
     direction 0.34202 -0.939693 0  
     length 6.96448  
     axis 0 0 20  XYZ
    dof rx ry rz
    limits (-160.0 20.0)
           (-70.0 70.0)
           (-60.0 70.0)
  end
  begin
     id 3 
     name ltibia
     direction 0.34202 -0.939693 0   
     length 6.88553   
     axis 0 0 20   XYZ
    dof rx
    limits (-10.0 170.0)
  end
  begin
     id 4 
     name lfoot
     direction 0.0723587 -0.198804 0.977364   
     length 1.88518   
     axis -90 7.62852e-016 20   XYZ
    dof rx rz
    limits (-45.0 90.0)
           (-70.0 20.0)
  end
  begin
     id 5 
     name ltoes
     direction 1.53558e-011 -4.21962e-011 1   
     length 0.952124   
     axis -90 7.62852e-016 20   XYZ
    dof rx
    limits (-90.0 20.0)
  end
  begin
     id 6 
     name rhipjoint
     direction -0.657603 -0.71533 0.236348   
     length 2.18854  
     axis 0 0 0  XYZ 
  end
  begin
     id 7 
     name rfemur
     direction -0.34202 -0.939693 0   
     length 6.86686   
     axis 0 0 -20   XYZ
    dof rx ry rz
    limits (-160.0 20.0)
           (-70.0 70.0)
           (-70.0 60.0)
  end
  begin
     id 8 
     name rtibia
     direction -0.34202 -0.939693 0   
     length 6.59503   
     axis 0 0 -20   XYZ
    dof rx
    limits (-10.0 170.0)
 end
 begin
     id 9 
     name rfoot
     direction -0.101977 -0.280179 0.954516   
     length 1.93723  
     axis -90 -7.62852e-016 -20   XYZ
    dof rx rz
    limits (-45.0 90.0)
           (-20.0 70.0)
  end
  begin
     id 10 
     name rtoes
     direction -1.53564e-011 -4.21897e-011 1   
     length 0.970315   
     axis -90 -7.62852e-016 -20   XYZ
    dof rx
    limits (-90.0 20.0)
  end
  begin
     id 11 
     name lowerback
     direction -0.0339559 0.999421 -0.00235966   
     length 1.88543   
     axis 0 0 0   XYZ
    dof rx ry rz
    limits (-20.0 45.0)
           (-30.0 30.0)
           (-30.0 30.0)
  end
  begin
     id 12 
     name upperback
     direction 0.00401003 0.999739 0.0224689   
     length 1.8856   
     axis 0 0 0   XYZ
    dof rx ry rz
    limits (-20.0 45.0)
           (-30.0 30.0)
           (-30.0 30.0)
  end
  begin
     id 13 
     name thorax
     direction 0.0198619 0.999546 0.0226536   
     length 1.88352   
     axis 0 0 0   XYZ
    dof rx ry rz
    limits (-20.0 45.0)
           (-30.0 30.0)
           (-30.0 30.0)
  end
  begin
     id 14 
     name lowerneck
     direction -0.0461848 0.998632 0.0245198   
     length 1.34895   
     axis 0 0 0   XYZ
    dof rx ry rz
    limits (-20.0 45.0)
           (-30.0 30.0)
           (-30.0 30.0)
  end
  begin
     id 15 
     name upperneck
     direction -0.0180627 0.994724 -0.100984   
     length 1.35214   
     axis 0 0 0   XYZ
    dof rx ry rz
    limits (-20.0 45.0)
           (-30.0 30.0)
           (-30.0 30.0)
  end
  begin
     id 16
     name head
     direction -0.00374772 0.999293 -0.037403  
     length 1.3568  
     axis 0 0 0   XYZ
    dof rx ry rz
    limits (-20.0 45.0)
           (-30.0 30.0)
           (-30.0 30.0)
  end
  begin
     id 17 
     name lclavicle
     direction 0.971773 0.191119 0.138311  
     length 2.84954  
     axis 0 0 0   XYZ
    dof ry rz
    limits (-20.0 10.0)
           (0.0 20.0)
  end
  begin
     id 18 
     name lhumerus
     direction 1 -4.4897e-011 -2.43761e-027   
     length 4.40919   
     axis 180 -30 -90   XYZ
    dof rx ry rz
    limits (-60.0 90.0)
           (-90.0 90.0)
           (-90.0 90.0)
  end
  begin
     id 19
     name lradius
     direction 1 -4.4896e-011 -9.1621e-027   
     length 3.03857   
     axis 180 -30 -90   XYZ
    dof rx
    limits (-10.0 170.0)
  end
  begin
     id 20
     name lwrist
     direction 1 -4.4896e-011 -1.41363e-026   
     length 1.51928   
     axis 1.07133e-014 90 90   XYZ
    dof ry
    limits (-180.0 0.0)
 end
  begin
     id 21 
     name lhand
     direction 1 -4.48978e-011 -2.82725e-026   
     length 0.523208   
     axis 1.80403e-014 90 90   XYZ
    dof rx rz
    limits (-90.0 90.0)
           (-45.0 45.0)
  end
  begin
     id 22 
     name lfingers
     direction 1 -4.48977e-011 -5.6545e-026   
     length 0.421824   
     axis 3.60806e-014 90 90   XYZ
    dof rx
    limits (0.0 90.0)
  end
  begin
     id 23
     name lthumb
     direction 0.707107 -6.34962e-011 0.707107   
     length 0.605657   
     axis -90 45 2.85299e-015   XYZ
    dof rx rz
    limits (-45.0 45.0)
           (-45.0 45.0)
  end
  begin
     id 24 
     name rclavicle
     direction -0.957247 0.24311 0.156766   
     length 3.12406  
     axis 0 0 0   XYZ 
    dof ry rz
    limits (-10.0 20.0)
           (-20.0 0.0)
  end
  begin
     id 25 
     name rhumerus
     direction -1 -4.48964e-011 -1.70632e-027  
     length 4.61969   
     axis 180 30 90   XYZ
    dof rx ry rz
    limits (-90.0 60.0)
           (-90.0 90.0)
           (-90.0 90.0)
  end
  begin
     id 26 
     name rradius
     direction -1 -4.48966e-011 -6.60395e-027   
     length 3.09382   
     axis 180 30 90   XYZ
    dof rx
    limits (-10.0 170.0)
  end
  begin
     id 27 
     name rwrist
     direction -1 -4.48963e-011 -1.41363e-026   
     length 1.54691   
     axis 1.07133e-014 -90 -90   XYZ
    dof ry
    limits (-180.0 0.0)
  end
  begin
     id 28
     name rhand
     direction -1 -4.49013e-011 -2.82725e-026   
     length 0.500896   
     axis 1.80403e-014 -90 -90   XYZ
    dof rx rz
    limits (-90.0 90.0)
           (-45.0 45.0)
  end
  begin
     id 29
     name rfingers
     direction -1 -4.48902e-011 -5.6545e-026   
     length 0.403835   
     axis 3.60806e-014 -90 -90   XYZ
    dof rx
    limits (0.0 90.0)
  end
  begin
     id 30
     name rthumb
     direction -0.707107 -6.34953e-011 0.707107   
     length 0.579829   
     axis -90 -45 -2.85299e-015   XYZ
    dof rx rz
    limits (-45.0 45.0)
           (-45.0 45.0)
  end
:hierarchy
  begin
    root lhipjoint rhipjoint lowerback
    lhipjoint lfemur
    lfemur ltibia
    ltibia lfoot
    lfoot ltoes
    rhipjoint rfemur
    rfemur rtibia
    rtibia rfoot
    rfoot rtoes
    lowerback upperback
    upperback thorax
    thorax lowerneck lclavicle rclavicle
    lowerneck upperneck
    upperneck head
    lclavicle lhumerus
    lhumerus lradius
    lradius lwrist
    lwrist lhand lthumb
    lhand lfingers
    rclavicle rhumerus
    rhumerus rradius
    rradius rwrist
    rwrist rhand rthumb
    rhand rfingers
  end

#!OML:ASF E:\madness\Project 1\Capture day 1\Session 1\Female1.ASF
:FULLY-SPECIFIED
:DEGREES
97
root -19.6642 15.7757 -0.737105 -8.54611 -80.4526 16.5443
lowerback -5.78756 -0.303437 -1.94453
upperback -6.00598 -0.512476 -0.256235
thorax -2.94092 -0.262478 0.812751
lowerneck 8.70602 15.1728 5.76977
upperneck 2.00862 20.6586 -6.493
head 0.559778 10.4365 -3.23089
rclavicle 4.79568e-015 4.96962e-015
rhumerus -56.4523 16.0798 -43.5734
rradius 56.222
rwrist 8.78986
rhand -18.4664 -42.4532
rfingers 7.12502
rthumb 7.82017 -72.2886
lclavicle 4.79568e-015 4.96962e-015
lhumerus -50.3897 -16.9895 49.1821
lradius 77.1574
lwrist -30.0184
lhand -28.4173 -36.0335
lfingers 7.12502
lthumb -1.78892 -6.06128
rfemur -26.5011 4.25777 12.3376
rtibia 32.591
rfoot -11.4353 -13.1005
rtoes 7.73015
lfemur -13.2541 -13.8863 -7.7588
ltibia 53.1105
lfoot -8.3457 -9.3491
ltoes 30.2227
98
root -19.5993 15.7551 -0.681847 -9.10952 -80.7963 17.0009
lowerback -6.12082 -0.440333 -2.27894
upperback -5.78752 -0.65989 0.0390993
thorax -2.51839 -0.321492 1.29494
lowerneck 9.91466 15.4177 6.17874
upperneck 0.64987 21.021 -7.49217
head 0.102597 10.6603 -3.78807
rclavicle -2.03257e-014 -6.75868e-015
rhumerus -56.1282 15.7581 -42.4706
rradius 56.4123
rwrist 8.66611
rhand -18.7902 -42.3467
rfingers 7.12502
rthumb 7.50764 -72.1935
lclavicle -2.03257e-014 -6.75868e-015
lhumerus -49.7752 -16.4512 49.3289
lradius 76.4985
lwrist -30.6399
lhand -28.7054 -36.1182
lfingers 7.12502
lthumb -2.06716 -6.14846
rfemur -27.0503 4.35176 12.0725
rtibia 33.1093
rfoot -11.22 -12.942
rtoes 6.56004
lfemur -12.2834 -13.9327 -7.93921
ltibia 52.0481
lfoot -8.24187 -10.1872
ltoes 31.0206
99
root -19.5253 15.7316 -0.62122 -10.7662 -81.1139 18.5783
lowerback -6.1853 -0.49579 -2.32427
upperback -5.73593 -0.73084 -0.0696367
thorax -2.42702 -0.359042 1.20448
lowerneck 8.79582 15.7253 6.04326
upperneck 1.58166 21.4171 -6.70594
head 0.51498 10.8252 -3.34743
rclavicle -6.80837e-015 -1.19271e-015
rhumerus -56.3194 15.2237 -41.834
rradius 56.6237
rwrist 8.63358
rhand -19.0853 -42.4689
rfingers 7.12502
rthumb 7.22277 -72.3256
lclavicle -6.80837e-015 -1.19271e-015
lhumerus -49.0544 -16.5292 49.1178
lradius 75.4896
lwrist -32.463
lhand -30.6196 -34.4038
lfingers 7.12502
lthumb -3.9158 -4.46003
rfemur -27.7227 4.16828 11.638
rtibia 33.7238
rfoot -10.8948 -12.5435
rtoes 5.32542
lfemur -11.3304 -13.948 -8.35065
ltibia 50.8608
lfoot -8.07313 -10.9161
ltoes 31.8596
100
root -19.446 15.7064 -0.559633 -13.2579 -81.4551 20.9793
lowerback -5.72496 -0.559145 -2.49268
upperback -6.02608 -0.839712 -0.1745
thorax -2.98209 -0.405409 1.19443
lowerneck 10.1195 15.755 6.6427
upperneck 0.508554 21.5302 -7.35459
head 0.0967326 10.9181 -3.82764
rclavicle 5.96354e-015 6.55989e-015
rhumerus -56.9152 15.0485 -41.2422
rradius 57.0131
rwrist 8.66571
rhand -18.9462 -42.8421
rfingers 7.12502
rthumb 7.35713 -72.6942
lclavicle 5.96354e-015 6.55989e-015
lhumerus -48.6566 -16.7203 48.9301
lradius 75.018
lwrist -32.003
lhand -30.019 -34.9732
lfingers 7.12502
lthumb -3.33583 -5.01955
rfemur -28.4011 4.10019 11.0711
rtibia 34.3768
rfoot -10.5651 -12.1446
rtoes 4.67074
lfemur -10.2961 -13.9649 -8.95144
ltibia 49.5516
lfoot -7.92652 -11.2738
ltoes 31.3468
101
root -19.3658 15.6816 -0.499946 -14.8856 -81.7943 22.517
lowerback -5.54255 -0.626568 -2.51376
upperback -6.087 -0.940378 -0.270721
thorax -3.14495 -0.455832 1.10696
lowerneck 8.48227 16.1066 5.95735
upperneck 1.87419 21.9138 -5.97331
head 0.597262 11.0584 -3.05317
rclavicle 2.43263e-014 1.76918e-014
rhumerus -57.3952 14.5463 -40.7236
rradius 57.4523
rwrist 8.51277
rhand -19.157 -42.8645
rfingers 7.12502
rthumb 7.15363 -72.7235
lclavicle 2.43263e-014 1.76918e-014
lhumerus -47.9953 -16.7205 48.684
lradius 74.5413
lwrist -31.9191
lhand -29.8192 -34.8981
lfingers 7.12502
lthumb -3.14288 -4.94149
rfemur -29.0713 4.18253 10.6401
rtibia 35.0009
rfoot -10.2678 -11.8621
rtoes 4.2798
lfemur -9.27938 -13.9708 -9.36853
ltibia 48.1458
lfoot -7.71137 -11.3631
ltoes 30.1542
102
root -19.2852 15.6537 -0.440674 -16.1468 -82.0514 23.6804
lowerback -5.49072 -0.738882 -2.5464
upperback -6.07411 -1.0923 -0.334849
thorax -3.15554 -0.532224 1.05552
lowerneck 9.68684 16.1358 6.80047
upperneck 0.742438 22.0525 -6.8278
head 0.239714 11.1639 -3.61301
rclavicle 1.2598e-014 1.35174e-014
rhumerus -57.7889 14.1345 -40.2904
rradius 57.7856
rwrist 8.18587
rhand -19.7204 -42.4001
rfingers 7.12502
rthumb 6.60972 -72.2769
lclavicle 1.2598e-014 1.35174e-014
lhumerus -47.3731 -16.7148 48.4916
lradius 74.1067
lwrist -32.1875
lhand -29.898 -34.2564
lfingers 7.12502
lthumb -3.21894 -4.30096
rfemur -29.6699 4.20097 10.266
rtibia 35.5532
rfoot -9.83372 -11.5784
rtoes 4.05196
lfemur -8.32779 -13.9516 -9.66999
ltibia 46.6416
lfoot -7.1732 -11.3641
ltoes 29.5688
